<?xml version="1.0" encoding="UTF-8"?>
<svg version="1.1" viewBox="0 0 1600 1600" width="1280" height="1280" xmlns="http://www.w3.org/2000/svg">
<path transform="translate(891,245)" d="m0 0c0.71 0.18 1.42 0.36 2.15 0.55 25.2 6.44 49.4 15.2 72.8 26.4 0.64 0.31 1.29 0.62 1.95 0.93 10.7 5.14 20.9 10.9 31 17.1 0.96 0.58 1.93 1.17 2.92 1.77 6.57 4.09 12.9 8.55 19.2 13.1 2.89 2.06 5.74 4.06 8.79 5.89 2.83 1.7 4.8 3.95 7.13 6.28 4.07 3.4 8.24 6.67 12.5 9.86 4.5 3.39 7.96 6.75 11.5 11.1 1.92 1.76 3.9 3.45 5.88 5.14 4.59 4.03 8.94 8.33 12.8 13 2.22 2.79 2.22 2.79 4.56 5.06 6.17 6.17 11.7 12.4 16.4 19.8 1.36 2.14 1.36 2.14 3.76 4.32 3.32 3.4 5.56 7.23 8.01 11.3 1.34 2.43 1.34 2.43 3.55 3.33 2.4 3.9 4.43 7.68 6 12h2c0.39 0.71 0.77 1.43 1.17 2.16 3.53 6.49 3.53 6.49 7.21 12.9 1.62 2.94 1.62 2.94 1.62 4.94h2c3.68 7.66 7.34 15.3 11 23 0.33 0.7 0.67 1.4 1.01 2.12 5.06 10.6 9.7 21.5 13.3 32.7 0.84 2.56 1.77 5.08 2.71 7.61 1.56 4.25 2.94 8.52 4.19 12.9 0.46 1.54 0.95 3.07 1.48 4.58 2.16 6.15 3.56 12.3 4.83 18.7 0.3 1.47 0.3 1.47 0.61 2.97 0.41 2.04 0.82 4.09 1.23 6.14 0.46 2.26 0.93 4.51 1.41 6.77 10.1 48 9.41 99.6-0.75 148-0.33 1.58-0.33 1.58-0.66 3.19-0.6 2.9-1.22 5.79-1.84 8.69-0.2 0.95-0.4 1.9-0.61 2.89-1.11 5.16-2.43 10.1-4.17 15.1-0.91 2.64-1.65 5.32-2.41 8.02-2.59 9.26-5.91 18.1-9.5 27-1.15 2.92-2.23 5.86-3.31 8.8-2.69 7-6.08 13.6-9.5 20.2-1.02 2.08-2.04 4.17-3.06 6.25-2.28 4.56-4.78 8.92-7.45 13.3-1.54 2.58-2.96 5.21-4.37 7.87-3.32 6.14-7.14 11.9-11.1 17.6-0.45 0.65-0.9 1.31-1.37 1.98-19 27.4-19 27.4-30.6 39-4.25 4.62-8.43 9.29-12.4 14.1-0.84 0.95-1.69 1.9-2.56 2.88h-2v2c-1.36 1.38-1.36 1.38-3.31 3-4.59 3.88-8.98 7.96-13.4 12.1-2.32 1.94-2.32 1.94-4.32 1.94l-1 3c-1.94 2.21-3.72 3.84-6.26 5.33-3.13 1.91-5.98 4.1-8.86 6.36-8.38 6.49-16.9 12.7-25.7 18.6-0.94 0.63-0.94 0.63-1.89 1.28-9.62 6.41-9.62 6.41-13.3 6.41v2l-7.9 3.95c-3.38 1.69-6.76 3.38-10.1 5.09-14.9 7.52-29.9 14.2-45.7 19.8-2.46 0.88-4.89 1.78-7.31 2.72-15.6 5.88-32.2 9.43-48.4 12.9-1.77 0.39-3.53 0.82-5.29 1.26-10.8 2.6-21.6 3.39-32.6 4.23-3.3 0.25-6.6 0.51-9.9 0.78-19.8 1.59-38.8 1.36-58.6-0.26-3.31-0.27-6.62-0.52-9.93-0.77-11-0.86-21.4-2.04-32.1-4.69-2.1-0.44-4.2-0.86-6.3-1.28-1-0.2-1.99-0.41-3.02-0.61-2.01-0.41-4.03-0.82-6.04-1.22-5.3-1.08-10.4-2.36-15.5-4.15-4.45-1.52-9.03-2.65-13.6-3.85-4.73-1.27-9.08-2.9-13.6-4.89-2.61-1.01-5.24-1.97-7.88-2.94-4.97-1.84-9.89-3.73-14.7-5.96-1.9-0.86-3.82-1.68-5.74-2.48-26-10.8-50.2-26-72.6-43-1.91-1.46-3.84-2.9-5.78-4.34-7.15-5.37-13.8-11.2-20.3-17.2-1.41-1.26-2.83-2.51-4.25-3.75-0.63-0.55-1.27-1.11-1.92-1.68-1.2-1.03-2.41-2.05-3.63-3.05-3.83-3.17-7.1-6.54-10.3-10.3-2.05-2.4-4.15-4.74-6.26-7.08-1.14-1.27-1.14-1.27-2.3-2.56-1.51-1.66-3.02-3.32-4.54-4.96-6.03-6.56-11.4-13.5-16.8-20.6-0.54-0.71-1.09-1.42-1.65-2.15-3.18-4.16-6.21-8.44-9.23-12.7-0.4-0.57-0.81-1.14-1.23-1.73-2.89-4.16-2.89-4.16-2.89-6.39h-2c-0.39-0.71-0.77-1.43-1.17-2.16-3.53-6.49-3.53-6.49-7.21-12.9-1.62-2.94-1.62-2.94-1.62-4.94h-2l-4.02-8.04c-1.57-3.16-3.16-6.3-4.76-9.44-8.48-16.7-16.6-34.3-21.6-52.4-0.48-1.68-1.01-3.35-1.57-5.01-6.98-21-11.3-42.6-14.7-64.4-0.12-0.74-0.24-1.48-0.36-2.24-2.37-15.8-2.11-31.8-2.08-47.8 0-3.75 0-7.5-0.01-11.2 0-16.2 0.35-32 2.89-48 0.18-1.12 0.35-2.23 0.53-3.38 2.53-15.6 6.3-30.7 10.3-45.9 0.29-1.08 0.58-2.17 0.88-3.29 1.56-5.75 3.31-11.3 5.5-16.8 0.49-1.31 0.98-2.62 1.46-3.93 6.91-18.5 15.1-36.2 23.5-54.1h2c0.26-0.88 0.52-1.76 0.79-2.67 1.19-3.27 2.59-5.76 4.52-8.64 2.21-3.36 4.3-6.71 6.19-10.2 3.37-6.19 7.45-11.9 11.9-17.4 1.81-2.06 1.81-2.06 2.62-5.06 0.99-1.01 1.99-2.01 3-3 1.75-2.2 3.47-4.4 5.19-6.62 4.4-5.66 8.98-11.1 13.8-16.4 1.27-1.43 2.55-2.87 3.81-4.31 0.82-0.92 0.82-0.92 1.65-1.87 1.6-1.84 1.6-1.84 3.11-4.05 0.47-0.58 0.95-1.17 1.43-1.77h2c0.23-0.56 0.47-1.12 0.71-1.7 3.88-6.92 11.2-12.4 17.2-17.5 2.47-2.13 4.9-4.3 7.33-6.48 0.81-0.72 1.62-1.45 2.45-2.2 1.52-1.39 3.01-2.83 4.46-4.3 2.11-2.08 4.3-3.28 6.84-4.81 2.36-1.83 4.69-3.69 7.01-5.57 1.99-1.43 1.99-1.43 3.99-1.43v-2c2.05-1.48 2.05-1.48 4.88-3.19 3.78-2.34 7.49-4.73 11.1-7.31 8.67-6.12 17.6-11.5 27-16.5 1.4-0.74 2.79-1.49 4.19-2.23 1.5-0.8 3-1.6 4.5-2.39 0.7-0.38 1.4-0.75 2.12-1.13 13.2-6.97 13.2-6.97 20-9.41 2.59-0.98 5.12-2.06 7.67-3.15 7.07-2.98 14.3-5.47 21.5-7.97 1.96-0.7 3.9-1.45 5.84-2.21 5.01-1.9 10.2-3.19 15.4-4.51 1.01-0.26 2.03-0.52 3.08-0.79 6.31-1.62 12.6-3.17 19-4.57 1.97-0.46 3.92-1.01 5.86-1.59 52.6-15.2 119-9.55 171 3.95zm-135 6.75c-2.08 0.26-4.16 0.49-6.24 0.72-18.8 2.08-37.7 5.83-55.8 11.5-1.36 0.41-2.71 0.83-4.07 1.24-23.4 7.09-23.4 7.09-45.6 17-4.78 2.5-9.66 4.79-14.5 7.1-0.96 0.45-1.91 0.9-2.89 1.37-2.29 1.08-4.57 2.17-6.86 3.25v2c-1.07 0.14-1.07 0.14-2.15 0.29-3.34 0.83-5.56 2.24-8.41 4.15-3.09 2.05-6.08 3.99-9.44 5.56v2c-0.84 0.16-0.84 0.16-1.69 0.32-8.55 2.53-16.1 9.72-23.1 15.2-3.99 3.12-8.13 6.01-12.3 8.91-0.64 0.52-1.29 1.05-1.95 1.59v2c-0.56 0.25-1.11 0.5-1.69 0.75-2.73 1.48-4.99 3.18-7.31 5.25v2c-0.56 0.04-1.11 0.08-1.69 0.12-2.85 1.09-4.01 2.8-5.85 5.16-1.57 1.85-3.24 3.34-5.08 4.91-14 11.3-14 11.3-23.4 25.8-0.99 0.33-1.98 0.66-3 1-1.82 2.11-3.52 4.21-5.19 6.44-0.46 0.6-0.92 1.2-1.4 1.81-2.56 3.04-2.56 3.04-3.41 6.75h-2l-1 4h-2c-1.58 2.14-1.58 2.14-3.19 4.88-2.98 4.84-6.15 9.45-9.52 14-1.55 2.11-1.55 2.11-1.29 5.09-0.99 0.33-1.98 0.66-3 1-1.59 2.64-1.59 2.64-3 5.81-1.74 3.73-3.48 6.94-6 10.2-0.77 1.33-1.5 2.69-2.19 4.06-0.34 0.67-0.69 1.35-1.04 2.04-0.96 2.02-0.96 2.02-0.77 4.9h-2c-1.26 2.91-2 4.8-2 8h-2c-0.24 0.55-0.48 1.09-0.73 1.65-0.34 0.76-0.67 1.51-1.02 2.29-0.37 0.83-0.73 1.66-1.11 2.51-0.7 1.57-1.41 3.13-2.12 4.69-4.66 10.3-8.42 20.9-12.1 31.5-0.51 1.44-0.51 1.44-1.03 2.89-3.2 9.21-5.71 18.6-7.91 28-0.17 0.74-0.35 1.47-0.52 2.23-1.25 5.39-2.41 10.8-3.42 16.2-0.34 1.63-0.34 1.63-0.68 3.29-14.3 73.3-3.05 153 28.7 221 0.39 0.83 0.78 1.66 1.18 2.52 1.31 2.79 2.63 5.57 3.94 8.36 0.42 0.89 0.84 1.78 1.28 2.7 2.34 4.94 4.82 9.71 7.6 14.4h2c0.08 0.69 0.16 1.38 0.25 2.09 0.94 3.64 2.74 6.4 4.81 9.47 0.6 0.91 0.6 0.91 1.21 1.84 1.24 1.88 2.48 3.74 3.73 5.6 0.76 1.14 1.51 2.27 2.27 3.41 1.33 1.99 2.66 3.98 4 5.97 1.18 1.78 2.28 3.6 3.33 5.46 0.46 0.71 0.92 1.43 1.4 2.16h2c0.23 0.71 0.47 1.41 0.71 2.14 1.54 3.42 3.54 5.82 5.98 8.67 0.45 0.53 0.9 1.06 1.36 1.6 1.31 1.54 2.63 3.06 3.95 4.59 0.63 0.73 1.25 1.46 1.9 2.21 3.9 4.5 7.9 8.91 11.9 13.3 2 2.23 3.95 4.5 5.89 6.77 2.87 3.3 5.9 5.95 9.31 8.69 2.25 2.19 4.45 4.42 6.62 6.7 3.87 3.98 7.82 7.14 12.4 10.3 0.78 0.81 0.78 0.81 1.58 1.64 1.33 1.59 1.33 1.59 3.42 1.36l1 3c1.76 1.61 1.76 1.61 3.96 3.14 0.8 0.57 1.6 1.15 2.43 1.74 0.84 0.6 1.68 1.19 2.55 1.81 0.83 0.6 1.67 1.21 2.53 1.84 3.91 3.21 3.91 3.21 8.53 4.47v2c2.37 1.63 4.73 3.14 7.19 4.62 0.72 0.45 1.45 0.89 2.2 1.35l4.47 2.73c1.91 1.16 3.81 2.34 5.71 3.53 18 11.2 37.5 21.4 57.6 28.3 3.55 1.24 7 2.49 10.4 4 5.35 2.24 10.9 3.85 16.4 5.44 0.9 0.26 1.8 0.52 2.73 0.78 69.1 19.6 142 20.9 211-0.07 2.19-0.66 4.38-1.31 6.58-1.96 10.1-3.02 20-6.76 29.8-10.8 1.22-0.5 2.43-0.99 3.69-1.5 12-5.04 23.7-10.9 35.1-17.3 2.05-1.13 4.13-2.2 6.23-3.23v-2c0.69-0.08 1.38-0.16 2.09-0.25 3.65-0.94 6.44-2.74 9.53-4.81 0.62-0.4 1.23-0.8 1.86-1.22 4.82-3.19 9.52-6.55 14.2-10 1.98-1.44 3.98-2.79 6.05-4.1 0.76-0.53 1.52-1.07 2.31-1.62v-2c0.6-0.11 1.19-0.23 1.8-0.35 3.57-1.06 6.03-3.67 8.76-6.09 6.17-5.38 6.17-5.38 9.44-7.56v-2c0.56-0.25 1.13-0.5 1.71-0.75 10.5-5.74 19.8-17 27.3-26.2 0.89-0.87 1.77-1.73 2.69-2.62 2.36-2.19 2.36-2.19 3.43-4.63 0.88-1.75 0.88-1.75 3.88-2.75 1.95-2.11 1.95-2.11 3.88-4.69 2.31-2.98 4.62-5.92 7.12-8.75 2.31-2.41 2.31-2.41 2-5.56 0.99-0.33 1.98-0.66 3-1 1.4-1.95 2.72-3.96 4-6 1.41-2.02 2.83-4.04 4.25-6.06 4.52-6.49 8.67-13.2 12.8-19.9 0.73-1.17 0.73-1.17 1.48-2.37 9.97-16.1 18-33.3 25.2-50.8 0.38-0.91 0.76-1.83 1.15-2.77 2.13-5.19 3.94-10.4 5.5-15.8 0.89-3.07 1.97-6.07 3.04-9.08 6.64-19.5 10.1-40.2 13.3-60.5 0.18-1.11 0.18-1.11 0.36-2.24 2.18-14.5 2.16-29.2 2.14-43.9v-2.79c-0.06-29.7-3.04-58.9-10.2-87.8-0.28-1.17-0.57-2.35-0.86-3.55-2.06-8.14-4.55-16.1-7.08-24.1-0.32-1.03-0.65-2.06-0.98-3.13-2.02-6.29-4.32-12.4-6.92-18.5-1.15-2.7-2.25-5.43-3.35-8.16-5.99-14.3-12.9-28.2-20.8-41.6-0.6-1.05-1.19-2.09-1.8-3.17-3.17-5.54-6.5-10.8-10.2-16-1.57-2.23-3.08-4.47-4.56-6.76-0.45-0.68-0.9-1.37-1.37-2.08-0.89-1.38-1.78-2.75-2.66-4.14-1.08-1.64-2.22-3.23-3.38-4.82h-2l-2-5h-2l-1-4h-2c-0.24-0.54-0.47-1.08-0.72-1.64-1.62-2.99-3.63-5.47-5.78-8.11-0.79-0.98-1.59-1.97-2.41-2.98-1.03-1.13-1.03-1.13-2.09-2.27h-2c-0.27-0.58-0.53-1.16-0.8-1.76-3.31-6.19-8.82-10.9-14.1-15.4-2.25-1.98-4.32-4.07-6.4-6.22-4.04-4.08-8.32-7.71-12.8-11.3-2.27-1.85-4.45-3.74-6.64-5.7-4.26-3.75-8.78-7.05-13.4-10.3-1.55-1.1-3.11-2.21-4.67-3.32-0.72-0.52-1.44-1.03-2.19-1.56-1.61-1.18-3.18-2.42-4.74-3.68-2.09-1.65-4.1-2.89-6.46-4.13-3.21-1.72-6.24-3.57-9.25-5.62-4.37-2.96-8.86-5.51-13.5-8-1.09-0.6-2.18-1.19-3.3-1.81-8.82-4.8-17.8-9.18-26.9-13.4-1.43-0.66-2.86-1.33-4.29-2-28-12.9-58.7-20.4-89-25.1-0.98-0.15-1.95-0.3-2.96-0.46-3.17-0.46-6.35-0.88-9.54-1.29-0.99-0.13-0.99-0.13-2-0.27-12.8-1.66-25.4-2.04-38.3-1.99-3.18 0.01-6.35 0-9.52-0.01-11.8-0.01-23.4 0.52-35.1 2.02z" fill="#000100"/>
<path transform="translate(794 499)" d="m0 0c2.56-0 5.12-0.02 7.68-0.04 21.3-0.07 41.7 3.27 61.8 10.2 1.04 0.35 1.04 0.35 2.11 0.71 9.56 3.32 18.5 7.46 27.4 12.3 0.9 0.48 1.79 0.97 2.72 1.47 6.22 3.46 12 7.35 17.8 11.5 0.63 0.45 1.26 0.9 1.91 1.36 1.58 1.14 3.15 2.29 4.72 3.45 1.02 0.75 2.04 1.5 3.1 2.27 0.75 0.63 1.5 1.26 2.27 1.92v2c0.6 0.28 1.2 0.57 1.81 0.87 2.19 1.13 2.19 1.13 5.19 3.13v2h2v2h2v2h2v2h2v2h2v2h2c1.74 2.11 3.39 4.23 5 6.43 2.94 4.4 2.94 4.4 7 7.57 1.03 1.64 2.03 3.31 3 5 1.27 1.88 2.54 3.75 3.81 5.62 3.77 5.63 7.08 11.4 10.2 17.4 0.57 1.05 1.13 2.11 1.72 3.2 4.69 9 8.13 18.2 11.3 27.8 0.38 1.14 0.77 2.29 1.16 3.47 10.8 33.5 10.8 33.5 6.65 46.2-1.98 3.64-3.21 5.28-6.81 7.32-6.06 1.65-10.4 1.15-16-2-4.87-3.39-5.78-8.48-7-14-0.49-2.87-0.93-5.75-1.37-8.63-1.37-8.79-3.66-17-6.63-25.4-0.24-0.7-0.49-1.4-0.75-2.12-2.68-7.52-5.56-14.8-9.25-21.9v-2h-2c-0.3-0.65-0.6-1.29-0.92-1.95-2.05-4.23-4.08-8.26-6.89-12-2.19-3-2.19-3-2.19-5h-2c-0.4-0.9-0.4-0.9-0.81-1.82-1.08-2.23-1.08-2.23-2.81-3.81-0.46-0.45-0.91-0.91-1.38-1.37v-2c-0.99-0.33-1.98-0.66-3-1-1.79-1.75-1.79-1.75-3.62-3.88-0.92-1.05-0.92-1.05-1.85-2.12-1.53-2-1.53-2-2.53-5-1.32-0.7-2.65-1.36-4-2-1.55-1.34-3.07-2.72-4.56-4.13-8.85-8.31-8.85-8.31-19.4-13.9l-1-2c-1.98-1.05-3.98-2.04-6-3-1.26-0.69-2.52-1.39-3.78-2.09-9.21-5.1-18.1-8.96-28.2-11.9-1.16-0.36-2.32-0.72-3.52-1.09-34.8-10.4-72.3-9.48-106 3.09-0.79 0.28-1.58 0.56-2.39 0.85-21.7 8.22-40.8 21.2-57.6 37.2-0.76 0.71-1.52 1.43-2.3 2.17-10 9.3-10 9.3-16.7 20.8h-2c-0.37 1.02-0.37 1.02-0.75 2.06-1.49 3.5-3.32 6.65-5.25 9.94h-2c-0.27 1.05-0.53 2.1-0.81 3.18-1.08 3.48-2.26 5.78-4.19 8.82-3.63 6.42-5.73 13.1-7.84 20.2-0.86 2.85-1.78 5.65-2.78 8.45-4.91 14.6-5.53 29.2-5.52 44.4 0 1.71-0.01 3.43-0.01 5.14-0.01 3.68-0.01 7.36-0.02 11 0 5.82-0.02 11.6-0.04 17.5 0 2-0.01 4-0.02 5.99 0 1 0 2-0.01 3.03-0.04 13.5-0.07 27.1-0.08 40.6-0.01 9.15-0.03 18.3-0.07 27.4-0.02 4.83-0.04 9.67-0.03 14.5 0 4.54-0.01 9.09-0.04 13.6v5c0.01 2.28 0 4.55-0.03 6.83v3.86c-0.68 4.63-2.66 7.8-6.15 10.9-4.66 2.65-8 3.14-13.4 2.54-2.75-1.32-2.75-1.32-5-3-0.72-0.38-1.44-0.75-2.19-1.13-6-6.21-4.09-18.6-4.07-26.7 0-1.59 0-3.19-0.01-4.78-0.01-4.31 0-8.62 0-12.9 0.01-4.54 0-9.07 0-13.6 0-7.62 0-15.2 0.01-22.9 0.01-8.76 0.01-17.5 0-26.3-0.01-7.56-0.01-15.1-0.01-22.7 0.01-4.5 0.01-9 0-13.5-0.04-31.3 1.55-59.8 12.3-89.5 0.43-1.22 0.86-2.44 1.3-3.7 8.87-23.8 23.3-43.3 39.7-62.3 0.87-1.06 1.73-2.11 2.6-3.17 1.91-2.25 3.72-4.18 5.96-6.08 0.69-0.59 1.38-1.17 2.08-1.77 0.78-0.66 1.56-1.31 2.36-1.98 0.92-0.79 1.85-1.58 2.8-2.39 21-17.7 44.6-32.1 71.2-39.6 1.24-0.36 2.48-0.71 3.76-1.08 17.5-4.83 33.7-7.11 51.8-7.11z" fill="#000100"/>
<path transform="translate(847 639)" d="m0 0c0.76 0.72 1.53 1.44 2.31 2.19v2l4 2v2c0.99 0.33 1.98 0.66 3 1 0.34 1.33 0.67 2.66 1 4 0.99 0.33 1.98 0.66 3 1 1.46 2.23 2.72 4.39 3.94 6.75 0.35 0.67 0.71 1.34 1.07 2.03 7.18 14.1 8.14 27.6 8.17 43.2 0.01 1.62 0.01 3.23 0.02 4.85 0.02 5.28 0.03 10.6 0.04 15.8 0 1.82 0.01 3.64 0.01 5.46 0.02 8.56 0.04 17.1 0.04 25.7 0.01 9.86 0.04 19.7 0.08 29.6 0.03 7.64 0.05 15.3 0.05 22.9 0 4.56 0.01 9.12 0.04 13.7 0.02 4.29 0.02 8.57 0.01 12.9 0 1.57 0.01 3.13 0.02 4.7 0.12 14.7 0.12 14.7-4.49 20.5-3.68 3.45-6.6 3.95-11.6 4.12-3.44-0.12-3.44-0.12-6.44-1.12v-2c-0.6-0.25-1.19-0.5-1.81-0.75-2.62-1.5-3.64-2.66-5.19-5.25-0.38-2.96-0.38-2.96-0.38-6.48-0.01-0.65-0.01-1.29-0.02-1.96-0.01-2.17-0.01-4.34 0-6.51 0-1.56-0.01-3.12-0.02-4.68-0.01-3.35-0.02-6.71-0.02-10.1 0-5.31-0.02-10.6-0.04-15.9-0.04-10.3-0.06-20.7-0.08-31-0.02-13.1-0.05-26.2-0.1-39.4-0.02-5.27-0.03-10.5-0.03-15.8-0.01-3.29-0.02-6.59-0.03-9.88v-4.56c0.02-13.6-0.57-26.2-8.28-37.8v-3c-1.48-0.5-1.48-0.5-3-1-1.16-1.46-2.31-2.92-3.47-4.37-3.4-3.63-7.84-6.07-12.5-7.63v-2c-18.2-2.98-32.6-3.63-48 7.41-4.8 3.78-7.89 8.4-11 13.6-0.49 0.72-0.97 1.44-1.48 2.18-5.49 10.2-4.96 23.8-4.92 35 0 1.55-0.01 3.1-0.02 4.65-0.01 3.3-0.02 6.6-0.02 9.9 0 5.22-0.02 10.4-0.04 15.7-0.04 10.1-0.06 20.2-0.08 30.4-0.02 12.9-0.05 25.8-0.1 38.8-0.02 5.18-0.03 10.4-0.03 15.6l-0.03 9.66v4.47c0 2.04-0.01 4.08-0.02 6.12v3.45c-0.39 4.76-1.18 8.1-4.63 11.5-5.1 3.28-9.79 2.91-15.8 2.56-3.82-1.78-6.15-5.37-7.93-9.06-1.12-3.34-1.2-6.06-1.21-9.58 0-0.66-0.01-1.33-0.01-2.02-0.01-2.23-0.01-4.46 0-6.69-0.01-1.6-0.01-3.2-0.02-4.8-0.01-4.35-0.01-8.7-0.01-13 0-3.64 0-7.28-0.01-10.9-0.01-8.6-0.01-17.2 0-25.8 0-8.84-0.01-17.7-0.03-26.5-0.02-7.6-0.02-15.2-0.02-22.8 0-4.54 0-9.08-0.02-13.6-0.01-4.28-0.01-8.55 0.01-12.8 0-1.56 0-3.12-0.01-4.67-0.07-12.8 0.69-25.8 7.01-37.2 2.47-4.51 2.47-4.51 4.37-9.25h2c0.29-0.77 0.58-1.53 0.88-2.31 1.12-2.69 1.12-2.69 3.12-5.69h2c0.25-0.58 0.5-1.16 0.75-1.75 1.44-2.58 3.04-4.31 5.25-6.25h2v-2c5.41-4 5.41-4 8-4v-2c30.6-15.8 63-15.2 90.7 6.81z" fill="#000100"/>
<path transform="translate(876 385)" d="m0 0c3.24 0.8 6.49 1.51 9.76 2.19 2.56 0.63 4.97 1.58 7.41 2.55 2.74 1.01 5.52 1.86 8.31 2.71 6.63 2.01 12.9 4.19 19.2 7.21 1.78 0.82 3.57 1.65 5.35 2.47 7.29 3.37 14.5 6.85 21.6 10.5 0.98 0.5 1.96 1.01 2.97 1.53 14.3 7.57 14.3 7.57 17 15.5-0.1 5.39-1.59 9.84-5 14-2.98 2.46-6.01 3.8-9.82 4.56-4.91-0.87-8.82-3.19-13.2-5.56-2.85-1.53-5.71-3.05-8.57-4.56-0.74-0.4-1.49-0.8-2.25-1.2-9.14-4.84-18.5-8.61-28.2-12.2-0.89-0.34-1.77-0.68-2.68-1.03-24.5-9.25-50.3-14.5-76.3-17-1.27-0.13-2.53-0.27-3.84-0.4-3.39-0.3-6.76-0.48-10.2-0.6-0.77-0.03-1.53-0.07-2.32-0.1-13.7-0.52-27.2 0.44-40.8 1.91-0.78 0.08-1.57 0.17-2.37 0.25-9.99 1.07-19.7 2.61-29.5 4.94-0.94 0.22-1.87 0.43-2.83 0.66-2.52 0.59-5.04 1.21-7.55 1.84-0.82 0.2-1.65 0.4-2.49 0.6-4.52 1.13-8.85 2.45-13.2 4.14-1.99 0.77-3.98 1.47-6 2.15-9.65 3.3-18.9 7-28 11.6-4.61 2.24-8.94 2.89-14 1.96-4.33-1.88-6.57-4.26-8.94-8.31-1.47-5.12-1.97-9.25-0.06-14.4 2.88-3.33 6.15-5.21 10-7.31 0.82-0.46 1.64-0.93 2.49-1.4 9.39-5.02 19.4-8.24 29.5-11.6 0.81-0.27 1.62-0.55 2.45-0.83 59-19.8 122-22.1 182-6.83z" fill="#000100"/>
<path transform="translate(489,1083)" d="m0 0h42v65h2c0.23-0.87 0.45-1.73 0.69-2.62 2.67-6.87 6.81-10.4 13.3-13.4 8.94-1.99 19.7-2.28 27.6 2.56 5.5 3.89 9.04 8.81 10.4 15.4 0.11 2.07 0.17 4.15 0.19 6.22 0.02 1.26 0.03 2.52 0.05 3.81 0.01 0.67 0.01 1.34 0.02 2.03 0.02 2.1 0.05 4.19 0.08 6.29 0.07 5.2 0.13 10.4 0.19 15.6 0.05 4.4 0.1 8.81 0.16 13.2 0.03 2.07 0.05 4.14 0.07 6.21 0.02 1.25 0.03 2.5 0.05 3.79 0.01 1.1 0.03 2.21 0.04 3.34-0.13 2.43-0.13 2.43 1.15 3.49 1.51 0.23 3.04 0.41 4.56 0.56 0.83 0.09 1.66 0.17 2.51 0.26 0.63 0.06 1.27 0.12 1.93 0.18v2h-49v-2h6c0.05-7.88 0.08-15.8 0.1-23.6 0.01-3.66 0.03-7.32 0.05-11 0.02-3.54 0.03-7.08 0.04-10.6 0.01-1.98 0.02-3.97 0.04-5.96 0-7.8-0.67-15.2-2.23-22.8-4.87-1.06-4.87-1.06-9.62 0-6.37 5.36-8.32 10.9-9.38 19-0.24 4.27-0.23 8.52-0.2 12.8 0.01 1.78 0.01 1.78 0.01 3.59 0.01 3.75 0.04 7.5 0.07 11.2 0.01 2.56 0.01 5.12 0.02 7.67 0.02 6.24 0.06 12.5 0.1 18.7 2.31 0.33 4.62 0.66 7 1v2h-50v-2c2.97-0.33 5.94-0.66 9-1v-128c-2.97-0.33-5.94-0.66-9-1v-2z" fill="#000100"/>
<path transform="translate(431,1083)" d="m0 0h44v131h7l2 2h-40l-1-11-4 4c-1.21 1.27-1.21 1.27-2.44 2.56-6.75 6.43-13.3 6.76-22.3 6.65-7.51-0.48-13-2.86-18.4-8.11-9.46-10.7-11.4-25.4-10.7-39.4 1.03-12.6 3.44-25.1 13.2-34 8.52-6.79 18.7-7.52 29.2-6.42 6.48 1.03 7.77 2.03 13.4 6.73l1-52h-11v-2zm-7 53c-1.21 1.58-1.21 1.58-2.12 3.56-0.34 0.64-0.67 1.28-1.01 1.94-2.3 6.6-2.03 13.8-2.04 20.7 0 0.96 0 1.92-0.01 2.91 0 2.03-0.01 4.05-0.01 6.08 0 3.06-0.02 6.13-0.03 9.2-0.01 1.98-0.01 3.95-0.01 5.93-0.01 0.91-0.01 1.81-0.02 2.74-0.07 11.5-0.07 11.5 4.37 21.6 3.88 1.68 6.94 1.45 10.9 0.25 4.9-2.45 6.42-6.25 8.16-11.2 1.72-7.79 1.39-15.8 1.31-23.7-0.03-3.13-0.02-6.25-0.01-9.38-0.01-2.01-0.02-4.02-0.03-6.04 0.01-0.92 0.01-1.84 0.01-2.79-0.1-7.2-1.15-14.2-5.06-20.4-4.43-2.68-9.52-3.06-14.4-1.44z" fill="#000100"/>
<path transform="translate(870 446)" d="m0 0c2.76 0.98 5.56 1.81 8.37 2.65 7.02 2.15 13.9 4.54 20.8 7.12 0.89 0.33 1.79 0.66 2.71 1 6.4 2.56 9.63 5.54 12.7 11.9 0.95 4.72 0.41 8.77-1.12 13.4-2.9 4.07-5.86 5.97-10.8 6.82-6.82 0.42-12.4-2.37-18.5-5.07-14.2-6.02-28.4-10.2-43.6-13.2-0.79-0.16-1.59-0.31-2.41-0.47-13.3-2.45-26.4-3.73-39.9-3.66h-2.14c-17.8 0.06-35.6 1.61-52.9 6.31-1.33 0.32-2.67 0.63-4 0.94-3.56 0.9-7.06 1.98-10.6 3.06-1.12 0.35-2.24 0.69-3.39 1.05-1.74 0.54-3.47 1.1-5.19 1.69-4.29 1.42-7.49 1.38-11.9 0.26-4.31-2.32-7.2-4.39-9-9-0.54-4.53-0.58-8.54 1.12-12.8 5.37-6.26 10.4-8.35 18.2-10.4 1.81-0.5 3.62-1 5.43-1.51 0.79-0.22 1.59-0.43 2.41-0.65 1.85-0.43 1.85-0.43 2.85-1.59 2.46-0.52 4.9-0.99 7.37-1.43 0.67-0.13 1.34-0.25 2.02-0.37 1.43-0.26 2.85-0.52 4.27-0.77 1.62-0.3 3.24-0.6 4.86-0.91 38.9-7.42 84.4-8 122 5.71z" fill="#000100"/>
<path transform="translate(864,577)" d="m0 0c0.91 0.49 1.82 0.98 2.76 1.48 8.34 4.58 15.2 10.3 22.2 16.5 1.29 1.06 2.58 2.13 3.88 3.19 4.97 4.27 9.4 9.42 13.1 14.8v2h2c7.7 10.3 13.4 22.1 18 34 0.24 0.61 0.49 1.22 0.74 1.85 1.86 4.79 3.24 9.58 4.38 14.6 0.17 0.7 0.34 1.4 0.52 2.12 2.2 9.43 2.53 18.7 2.56 28.4 0.01 1.21 0.01 2.43 0.02 3.68 0.01 2.56 0.02 5.12 0.02 7.68 0.01 3.91 0.04 7.82 0.07 11.7 0.01 2.49 0.01 4.98 0.02 7.47 0.01 1.17 0.02 2.33 0.04 3.53-0.02 7.11-0.52 11.9-5.49 17.3-3.94 2.31-7.34 2.88-11.9 2.69-4.49-1.25-6.44-2.31-9.38-5.94-2.77-5.23-2.81-10-2.9-15.9-0.02-0.86-0.04-1.73-0.06-2.62-0.06-2.78-0.11-5.55-0.16-8.33-0.66-34.6-3.86-62.5-26.5-90.2-0.64-0.87-1.28-1.73-1.94-2.62-5.95-6.86-13.5-12.4-21.1-17.4v-2c-1.03-0.14-1.03-0.14-2.07-0.29-3.59-0.87-6.48-2.38-9.74-4.09-3.85-1.99-7.63-3.89-11.8-5.24-4.77-1.91-7.28-4-9.55-8.65-1.31-3.49-2.22-6.32-1.35-10 1.96-4.24 4.42-7.25 8.46-9.71 11.5-4.06 25.4 4.28 35 10z" fill="#000100"/>
<path transform="translate(804,1137)" d="m0 0c6.04 5.71 7.14 14 7.43 21.9 0.04 2.61 0.07 5.22 0.08 7.84 0.02 1.4 0.04 2.79 0.06 4.19 0.04 3.65 0.07 7.29 0.1 10.9 0.03 3.74 0.08 7.47 0.12 11.2 0.09 7.31 0.15 14.6 0.21 21.9h9v2h-49v-2h7c-0.06-9.19-0.14-18.4-0.24-27.6-0.04-4.27-0.08-8.54-0.11-12.8-0.02-4.12-0.06-8.24-0.11-12.4-0.02-1.57-0.03-3.14-0.04-4.71-0.01-2.2-0.04-4.4-0.07-6.6-0.01-1.88-0.01-1.88-0.03-3.79-0.43-3.38-0.99-4.82-3.4-7.18-2.22-0.38-2.22-0.38-4.56 0.06-0.79 0.1-1.57 0.19-2.38 0.29-2.43 0.53-2.43 0.53-4.06 3.65h-2c-0.43 1.33-0.43 1.33-0.88 2.69-1.12 3.31-1.12 3.31-2.18 5.62-2.61 7.49-2.08 15.9-2.04 23.7 0 1.67 0 1.67 0.01 3.39 0 3.54 0.01 7.09 0.03 10.6 0 2.42 0.01 4.83 0.01 7.25 0.01 5.9 0.03 11.8 0.05 17.7h7v2h-49v-2h9v-80h-9v-3h41v16h3c0.04-0.68 0.08-1.36 0.12-2.06 1.62-5.43 5.56-9.36 10.3-12.3 11.1-5.05 24.6-3.43 34.6 3.38z" fill="#000100"/>
<path transform="translate(359 1138)" d="m0 0c4.66 5.93 6.17 11.5 6.22 18.9 0.01 1.02 0.02 2.05 0.03 3.1 0.01 1.1 0.02 2.19 0.02 3.32l0.09 6.99c0.04 3.67 0.08 7.34 0.1 11 0.03 3.54 0.08 7.08 0.13 10.6 0 1.09 0 2.19 0.01 3.32 0.01 1.02 0.03 2.05 0.05 3.1 0 0.9 0.01 1.8 0.02 2.72 0.47 3.06 1.67 5 3.39 7.54 3.47-0.49 3.47-0.49 7-1 0.78-3.75 1.44-7.52 2.06-11.3 0.18-1.07 0.36-2.13 0.54-3.24 0.13-0.8 0.27-1.61 0.4-2.45h1c0.6 7.63-0.46 14.2-4 21-3.48 4.06-6.77 5.34-12 6-18.3 1.11-18.3 1.11-25.5-4.31-2.54-2.73-3.29-4.01-3.5-7.69h-3c-0.06 0.54-0.12 1.08-0.18 1.63-1.19 3.46-3.12 5.97-5.82 8.37-7.91 3.63-18.7 3-27 0.82-5.02-2.05-8.12-5.4-10.9-9.94-2.18-6.09-1.91-13.2 0-19.2 5.38-7.28 11.5-10.6 20.4-12 8.15-0.91 16.4-0.68 24.5-0.61-0.09-4.26-0.2-8.53-0.31-12.8-0.04-1.45-0.08-2.9-0.11-4.35 0.47-12.9 0.47-12.9-4.58-23.8-2.33-0.39-2.33-0.39-4.94-0.37-0.87-0.03-1.75-0.06-2.65-0.09-2.54 0.26-2.54 0.26-4.24 2.29-1.61 3.01-0.98 4.94-0.17 8.17 0.64 0.13 1.28 0.25 1.94 0.38 0.68 0.21 1.36 0.41 2.06 0.62 1.85 3.69 1.36 7.97 1 12-1.59 3.75-3.52 5.9-7 8-5.52 1.68-11 1.76-16.4-0.24-2.74-1.83-3.98-2.93-5.63-5.76-0.74-5.48-1.19-11.9 0.85-17.2 3.01-3.94 7.68-5.98 12.2-7.83 0.95-0.39 1.9-0.78 2.88-1.18 15.3-3.98 38.1-4.88 51.1 5.56zm-36.9 42.6c-3.13 4.87-2.33 10.5-2.31 16.1-0.02 1.1-0.03 2.2-0.05 3.34v3.19c0 0.97-0.01 1.93-0.01 2.92 0.18 2.53 0.18 2.53 1.74 4.32 1.63 1.4 1.63 1.4 4.07 1.16 3.38-1.31 4.6-2.98 6.56-6 1.11-3.3 1.12-6.39 1.1-9.85 0-1.68 0-1.68-0.01-3.38-0.01-1.16-0.02-2.32-0.03-3.51 0-1.18 0-2.35-0.01-3.56-0.01-2.9-0.03-5.8-0.05-8.7-4.9-0.23-7.13 0.91-11 4z" fill="#000100"/>
<path transform="translate(1188,1131)" d="m0 0c0.8 0.02 1.59 0.03 2.41 0.05 10.2 0.65 19.8 5.33 26.6 13 8.91 12.1 9.14 27.3 7.25 41.6-1.86 10.7-6.09 18-14.2 25.4-12.5 8.75-29.9 8.26-44.4 6.31-9.37-1.82-18.1-7.32-23.8-15-7.6-12.6-8.09-27.1-5.47-41.3 2.26-8.88 7.31-17.2 14.9-22.4 2.23-1.29 4.48-2.43 6.83-3.5 0.67-0.31 1.34-0.62 2.04-0.93 8.91-3.71 18.5-3.32 28-3.07zm-16 6c-4.3 7.87-4.16 16.1-4.17 24.9 0 1.03 0 2.07-0.01 3.13 0 2.18-0.01 4.36-0.01 6.54 0 3.32-0.02 6.63-0.03 9.95-0.01 2.12-0.01 4.25-0.01 6.38-0.01 0.98-0.01 1.96-0.02 2.97 0.02 8.16 0.79 16.1 5.25 23.2 2.48 1.95 4.26 2.03 7.44 2.44 4.5-0.56 5.74-1.98 8.56-5.44 4.17-6.25 3.16-14.9 3.17-22.2 0-1.05 0-2.1 0.01-3.19 0-2.22 0.01-4.43 0.01-6.65 0-3.37 0.02-6.74 0.03-10.1 0.01-2.17 0.01-4.33 0.01-6.5 0.01-0.99 0.01-1.99 0.02-3.01-0.03-8.87-0.44-17.4-6.25-24.4-5.56-3.7-9.07-2.18-14 2z" fill="#000100"/>
<path transform="translate(865,1102)" d="m0 0v30h23v3h-23c0.09 9.02 0.18 18 0.29 27.1 0.05 4.19 0.09 8.38 0.13 12.6 0.04 4.05 0.09 8.09 0.14 12.1 0.02 1.54 0.03 3.08 0.04 4.62 0.02 2.17 0.05 4.33 0.08 6.49 0.01 1.23 0.03 2.46 0.04 3.73 0.28 3.42 1.05 6.18 2.28 9.38 5.59 0.33 9.3 0.42 14-3h2c1.73-3.16 2.71-6.27 3.62-9.75 0.4-1.48 0.4-1.48 0.79-2.98 0.2-0.75 0.39-1.5 0.59-2.27h3c-4.48 16-4.48 16-10.7 21.2-10.2 5.39-23.2 5.04-34.2 2.44-5.95-1.93-9.13-5.34-12.1-10.7-1.69-4.31-2.26-7.94-2.32-12.6-0.02-1.28-0.04-2.56-0.06-3.88-0.01-1.38-0.02-2.76-0.03-4.15-0.02-1.42-0.04-2.85-0.06-4.27-0.05-3.74-0.09-7.48-0.13-11.2-0.04-3.82-0.09-7.64-0.14-11.5-0.1-7.49-0.18-15-0.26-22.5-2.97-0.33-5.94-0.66-9-1v-3h10v-23c7.89-2.25 7.89-2.25 11-3.04 0.67-0.16 1.35-0.33 2.05-0.51 0.68-0.17 1.36-0.34 2.06-0.51 1.04-0.26 1.04-0.26 2.09-0.53 9.67-2.41 9.67-2.41 14.8-2.41z" fill="#000100"/>
<path transform="translate(942 1131)" d="m0 0c0.96-0.01 1.93-0.02 2.92-0.04 9.93-0.02 18.5 2.2 26.1 8.85 2 2.38 2 2.38 2 4.38h2c0.86 2.26 1.69 4.53 2.5 6.81 0.24 0.62 0.48 1.25 0.73 1.89 2.22 6.31 1.77 9.91 1.77 17.3-25.2 0.49-25.2 0.49-51 1 0.18 19.8 0.18 19.8 8 37v2c0.95 0.31 1.9 0.62 2.88 0.93 3.12 1.07 3.12 1.07 5.12 2.07 7.79 0.74 14.3 0.23 21-4 5.54-4.68 8.91-10.5 12-17h2c-2.7 8.73-6.57 16.6-14.5 21.6-7.99 4.12-14.8 4.6-23.7 4.61-1 0.01-1.99 0.02-3.01 0.03-10.9 0.02-21.2-1.23-29.6-8.66-6.25-7.12-6.25-7.12-6.25-9.56h-2c-6.13-14.5-7.82-30.2-2.32-45.2 4.98-10.4 13.6-17.5 24.1-22 6.29-2.04 12.6-1.91 19.2-1.91zm-9.94 6.19c-4.58 9.44-3.27 20.8-3 31 3.15 0.03 6.29 0.04 9.44 0.06 0.9 0.01 1.8 0.02 2.72 0.03 1.28 0 1.28 0 2.59 0.01 0.79 0 1.58 0.01 2.39 0.01 1.88 0.09 1.88 0.09 2.86-1.11 0.26-3.33 0.19-6.67 0.19-10 0.02-1.39 0.02-1.39 0.04-2.8 0.01-6.8-0.03-14-3.98-19.8-5.13-3.27-9.45-1.84-13.2 2.57z" fill="#000100"/>
<path transform="translate(1311 1135)" d="m0 0c4.59 4.46 5.54 8.34 5.81 14.6-0.14 6.05-1.25 10.2-5.5 14.6-4.1 2.74-9.21 2.56-14 2-3.52-1.37-6.89-2.78-9-6-0.9-4.68-1.3-8.35 0-13h7c0.02-1.3 0.04-2.6 0.07-3.94 0.01-0.73 0.02-1.46 0.03-2.21 0.11-1.87 0.11-1.87-1.1-2.85-4.99-0.38-8.12-0.27-12 3-7.26 9.2-8.44 18.7-8.29 30.1 0.01 1.84 0.01 1.84 0.01 3.73 0.02 3.9 0.06 7.8 0.09 11.7 0.02 2.66 0.03 5.32 0.05 7.97 0.03 6.49 0.08 13 0.14 19.5l12 1v2h-55v-2c4.46-0.49 4.46-0.49 9-1l1-79h-10v-3h42v16c2.29-0.9 2.29-0.9 3.38-3.75 3.13-6.26 6.46-9.22 12.6-12.2 7.53-2.32 15.1-1.53 21.7 2.75z" fill="#000100"/>
<path transform="translate(1066,1134)" d="m0 0c3.51 3.41 5.94 6.39 6.13 11.4 0.01 1.36 0 2.71-0.01 4.07 0.01 0.68 0.01 1.36 0.02 2.06-0.01 3.11-0.15 5.53-1.14 8.5h-2c-0.23 0.62-0.45 1.24-0.69 1.88-1.78 2.88-3.04 3.27-6.31 4.12-5.96 0.48-9.75-0.12-15-3-2.24-2.32-2.95-3.56-3.29-6.8 0.03-0.97 0.07-1.95 0.1-2.95 0.04-1.48 0.04-1.48 0.08-2.98 0.04-0.75 0.07-1.5 0.11-2.27l7-2 1-8c-4.48-0.31-7.1-0.43-11.2 1.5-7.2 6.4-10.3 15-11.1 24.5-0.08 3.22-0.08 6.43-0.03 9.65 0 1.74 0 1.74 0.01 3.52 0.02 3.66 0.05 7.33 0.09 11 0.02 2.5 0.03 5 0.04 7.51 0.04 6.1 0.09 12.2 0.15 18.3l12 1v2h-54v-2h9v-80h-9v-3h41v16h3c0.1-0.74 0.2-1.48 0.3-2.24 1.39-5.45 5.91-9.44 10.3-12.7 7.58-3.39 16.2-3.21 23.4 0.94z" fill="#000100"/>
<path transform="translate(656,1132)" d="m0 0h43l1 82c2.97 0.33 5.94 0.66 9 1v2h-52v-2c4.46-0.49 4.46-0.49 9-1l1-79h-11v-3z" fill="#000100"/>
<path transform="translate(600,1132)" d="m0 0h42l1 82c2.97 0.33 5.94 0.66 9 1v2h-52v-2c4.46-0.49 4.46-0.49 9-1l1-79h-10v-3z" fill="#000100"/>
<path transform="translate(1076,1132)" d="m0 0h42l1 83h9v2h-52v-2c0.64-0.06 1.28-0.12 1.93-0.18 0.83-0.09 1.66-0.17 2.51-0.26 0.82-0.08 1.64-0.16 2.49-0.24 2.06-0.11 2.06-0.11 3.07-1.32 0.09-2.4 0.13-4.78 0.11-7.18v-2.28c0-2.49 0-4.99-0.01-7.48 0-1.73-0.01-3.45-0.01-5.18 0-4.55-0.01-9.09-0.02-13.6-0.01-4.64-0.02-9.28-0.02-13.9-0.01-9.11-0.03-18.2-0.05-27.3l-10-1v-3z" fill="#000100"/>
<path transform="translate(807 690)" d="m0 0c3.66 4.85 5.5 8.78 5.53 14.9 0.01 1.18 0.02 2.36 0.04 3.57-0.01 1.26-0.01 2.52-0.01 3.82s0.01 2.61 0.01 3.96c0.01 2.76 0.01 5.52 0 8.28-0.01 3.52 0.01 7.04 0.04 10.6 0.02 3.38 0.01 6.76 0.01 10.1 0.02 1.89 0.02 1.89 0.04 3.82-0.07 7.94-0.81 12.6-6.22 18.7-4.91 2.39-9.83 2.39-15.1 1.43-3.44-1.41-5.03-2.28-7.19-5.31-2.19-6.8-2.29-13.2-2.26-20.3 0-1.17 0-2.34-0.01-3.54 0-2.46 0.01-4.92 0.01-7.38 0.01-3.76 0-7.51-0.01-11.3 0-2.4 0.01-4.8 0.01-7.2 0-1.11-0.01-2.22-0.01-3.37 0.08-13.5 0.08-13.5 3.61-19 6.14-5.72 14.5-7.09 21.5-1.75z" fill="#000100"/>
<path transform="translate(662,480)" d="m0 0c2.86 1.4 5.55 2.95 8 5v2h2c1.73 5.18 1.94 10.8-0.25 15.9-3.16 3.83-6.51 6.78-10.6 9.56-3 2.05-5.87 4.12-8.62 6.5-2.5 2.06-2.5 2.06-4.5 2.06l-1 3c-1.74 1.79-1.74 1.79-3.88 3.62-0.69 0.62-1.39 1.23-2.11 1.86-2.01 1.52-2.01 1.52-5.01 2.52-0.69 1.32-1.35 2.66-2 4-1.62 1.63-1.62 1.63-3.44 3.12-0.59 0.5-1.19 1-1.81 1.51-4.97 3.88-8.6 4.13-14.8 3.37-3.66-1.26-6.28-3.23-8.94-6.06-1.83-5.06-2.29-10.9-0.23-16 1.05-1.64 1.05-1.64 3.17-3.95h2v-2h2v-2h2v-2h2v-2h2v-2c4.74-5.07 10.7-9.24 16.1-13.6 0.67-0.56 1.35-1.11 2.04-1.67 17.4-14.1 17.4-14.1 25.9-12.7z" fill="#000100"/>
<path transform="translate(928,784)" d="m0 0c3.41 2.63 5.24 5.78 6 10 0.1 1.95 0.15 3.91 0.16 5.87 0.01 1.18 0.02 2.36 0.03 3.58 0 1.27 0.01 2.54 0.01 3.85 0.01 1.32 0.01 2.63 0.02 3.98 0.01 2.78 0.02 5.55 0.02 8.33 0.01 3.54 0.03 7.09 0.06 10.6 0.02 3.39 0.02 6.78 0.03 10.2 0.01 1.27 0.02 2.54 0.04 3.84-0.01 1.19-0.01 2.38-0.01 3.6 0 1.05 0 2.09 0.01 3.16-0.55 4.4-2.48 7.65-4.93 11.3-4.51 3.12-9.86 2.69-15.2 2.69-3.68-1.64-6.07-4.66-8.25-8-1.05-3.27-1.14-6.32-1.18-9.74-0.01-1.16-0.02-2.31-0.04-3.5 0-1.25-0.01-2.49-0.02-3.78-0.01-1.28-0.01-2.57-0.02-3.89-0.02-2.72-0.03-5.44-0.04-8.16-0.01-3.47-0.04-6.93-0.08-10.4-0.03-3.33-0.04-6.66-0.05-9.98-0.01-1.24-0.03-2.48-0.05-3.75 0.02-7.85 0.61-13.9 6.42-19.7 5.62-2.89 11.3-2.16 17.1-0.06z" fill="#000100"/>
<path transform="translate(959 494)" d="m0 0c4.79 2.6 4.79 2.6 6.04 5.1 0.99 0.33 1.98 0.66 3 1 1.5 1.56 1.5 1.56 3 3.44 1.96 2.45 3.32 3.78 6 5.56v2c0.57 0.25 1.15 0.5 1.75 0.75 2.57 1.43 4.31 3.04 6.25 5.25v2c0.84 0.33 0.84 0.33 1.71 0.67 3 1.75 4.68 3.94 6.85 6.64 0.76 0.95 1.53 1.89 2.31 2.87 4.65 6.18 6.04 10.1 5.13 17.8-1.81 4.62-4.55 6.89-9 9-5.23 0.7-10.1 1.02-14.8-1.5-0.72-0.82-1.44-1.65-2.18-2.5-0.6-0.64-1.2-1.28-1.81-1.94-4.99-5.45-4.99-5.45-6.19-9.06-0.9-0.43-0.9-0.43-1.82-0.87-2.88-1.49-4.2-3.59-6.18-6.13-0.75-0.56-1.49-1.11-2.25-1.69-0.58-0.43-1.16-0.86-1.75-1.31v-2l-4-2v-2c-0.59-0.28-1.18-0.55-1.78-0.84-5.19-2.71-9.14-5.98-11.3-11.5-1.25-4.62-1.02-8.31 1.07-12.6 5.42-6.78 11.6-9.9 20-6.1z" fill="#000100"/>
<path transform="translate(785,565)" d="m0 0v2c0.99 0.33 1.98 0.66 3 1 1.03 3.09 1.13 5.27 1.12 8.5 0.01 1.44 0.01 1.44 0.01 2.91-0.16 3.17-0.73 5.08-2.69 7.59-4.67 3.83-9.86 4.97-15.7 5.88-7.99 1.36-15 4.57-22 8.45-0.75 0.41-1.5 0.82-2.27 1.24-1.47 0.81-2.93 1.64-4.39 2.48-4.52 2.52-7.74 3.59-13 2.95-4.3-1.63-7.34-4.08-10-7.81-1.64-5.24-1.7-9.27 0.19-14.4 3.42-5.19 8.54-7.91 13.9-10.8 0.66-0.35 1.32-0.7 2-1.06 5.47-2.84 11-5 16.9-6.94 1.34-0.54 2.67-1.08 4-1.62 9.28-3.48 20.2-5.67 29-0.38z" fill="#000100"/>
<path transform="translate(808,806)" d="m0 0c3.76 5.6 4.6 10.7 4.53 17.3 0.01 0.86 0.01 1.71 0.01 2.6 0.01 1.81 0 3.61-0.02 5.42-0.02 2.75 0 5.5 0.03 8.25-0.01 1.76-0.01 3.52-0.02 5.29 0.01 0.81 0.02 1.63 0.03 2.46-0.1 5.69-1.33 8.99-4.56 13.7-3.63 3.4-6.57 3.9-11.4 4.25-4.82-0.34-7.07-2.06-10.8-5-4.02-4.99-4.11-11.2-4.08-17.3v-2.28c0-1.57 0-3.15 0.01-4.73 0.01-2.39 0-4.79-0.01-7.19v-4.62c0-0.7 0-1.41-0.01-2.14 0.05-5.29 0.46-10.6 3.83-14.9 6.92-5.55 15-7.29 22.4-1.04z" fill="#000100"/>
<path transform="translate(528,1274)" d="m0 0h21c-1.18 5.89-2.33 11.5-3.88 17.3-0.16 0.64-0.33 1.27-0.51 1.93-0.53 1.99-1.07 3.98-1.61 5.97l-1.08 4.02c-1.59 5.94-3.22 11.9-4.92 17.8l4-2c-1.55 3.97-3.27 7.85-5 11.8-4.25 9.82-6.54 19.1-4.25 29.8 1.06 2.54 1.06 2.54 3 3.94 3.65 0.91 6.7 0.12 10.2-1.14 7.3-4.59 11.5-15.4 14.1-23.3 0.45-1.29 0.45-1.29 0.9-2.61 2.87-9.14 3.5-18.3 0.1-27.4-5.12-0.3-7.74 0.2-12 3l-2-1c3.72-3.72 6.76-4.74 11.8-5.11 3.81 0.19 5.92 2.03 8.68 4.46 3.71 4.17 5.08 10.9 4.81 16.4-1.96 13.1-7.9 26-18.3 34.3l-1 2c-6.19 2.76-12.3 5.13-19 3-4.32-2.41-8.06-4.89-9.54-9.8-2.45-11.8 1.26-22.3 4.59-33.5 2.22-7.48 4.09-15 5.91-22.6 1.24-5.1 2.63-10.1 4.36-15 1.1-3.3 1.88-6.65 2.68-10h-14l1-2z" fill="#000100"/>
<path transform="translate(637 1088)" d="m0 0c3.71 2.76 5.97 5.41 7.44 9.81 0.67 5.58 0.2 10.4-2.62 15.3-3.2 4.01-7.09 5.41-12.1 6.11-6.17 0.27-11.4-0.47-16.3-4.38-3.3-3.52-4.28-7.17-4.56-11.9 0.19-5.2 2.03-9.24 5.56-13.1h2v-2c6.5-1.96 14.2-1.95 20.6 0.19z" fill="#000100"/>
<path transform="translate(1114,1089)" d="m0 0c3.07 2.85 5.77 6.08 6.27 10.3 0.22 5.95-0.15 10.2-3.73 15.1-4.07 4.22-8.38 4.77-14 5.03-5.21-0.19-9.56-0.92-13.6-4.44-3.36-4.93-4.86-10-4-16 1.45-4.56 3.28-7.39 6.94-10.5 6.48-3.18 15.7-2.75 22.1 0.5z" fill="#000100"/>
<path transform="translate(694 1088)" d="m0 0c4.28 3.19 6.52 5.8 7.31 11.1 0.4 5.99-0.32 10.7-4.12 15.6-5.74 4.43-11.7 4.84-18.8 4.12-5.04-1.22-8.21-3.6-11-8-2.11-5.08-1.44-10.7 0.25-15.8 1.89-3.5 3.55-6.51 7.48-7.83 6.19-1.13 12.9-1.22 18.8 0.77z" fill="#000100"/>
<path transform="translate(937 1310)" d="m0 0c5.54 5.46 6.96 11.6 7.25 19.2-0.34 11.4-4.69 22.4-12.6 30.8-5.74 4.38-12.1 8.21-19.5 7.81-4.85-1.12-8.13-1.93-11.2-6.09-5.14-8.32-6.8-15.3-4.58-25 2.54-8.64 5.29-15.7 12.2-21.7h2l1-3c7.9-5.27 16.8-7.12 25.3-2zm-22.9 5.88c-7.21 11.1-11.9 27.9-10.4 41.1 1.27 3.75 2.3 5.42 5.31 7.94 3.47 1.37 5.13 1.15 8.69 0.06 9.7-5.24 13-15.6 16.2-25.6 2.14-7.74 3.9-18.3 0.72-25.9-0.32-0.51-0.64-1.02-0.97-1.54h-2v-2c-6.94-3.47-13 0.82-17.6 5.88z" fill="#000100"/>
<path transform="translate(836,1274)" d="m0 0h21c-1.12 10.1-1.12 10.1-2.39 13.4-1.8 5.05-3.11 10.2-4.42 15.4-2.86 11.1-5.98 22.2-9.19 33.2 1.49 0.49 1.49 0.49 3 1-0.6 1.38-1.21 2.75-1.81 4.12-0.34 0.77-0.68 1.54-1.02 2.33-0.84 1.83-1.74 3.64-2.67 5.43-1.57 3.26-2.62 6.46-3.62 9.93-1.78 6.09-1.78 6.09-2.88 7.19-2.33 0.04-4.67 0.04-7 0 1.06-4.02 2.13-8.03 3.2-12l1.08-4.08c1.82-6.86 3.66-13.7 5.63-20.6 2.45-8.51 4.74-17.1 7.04-25.6 0.74-2.79 1.5-5.58 2.25-8.37l1.44-5.37c0.22-0.82 0.44-1.65 0.67-2.5 0.31-1.16 0.31-1.16 0.63-2.35 0.18-0.68 0.36-1.35 0.55-2.05 0.58-2.33 1.04-4.7 1.51-7.06h-13v-2z" fill="#000100"/>
<path transform="translate(714,1277)" d="m0 0h6c1.55 3.1 0.27 5.26-0.65 8.54-0.18 0.64-0.36 1.28-0.54 1.94-0.58 2.05-1.16 4.1-1.75 6.14l-1.17 4.17c-0.95 3.41-1.92 6.81-2.89 10.2h14v2l-14 1c-3.16 6.57-4.8 13.4-6.56 20.5-0.61 2.39-1.21 4.77-1.82 7.16-0.42 1.66-0.42 1.66-0.85 3.37-0.61 2.34-1.26 4.64-1.98 6.94-0.82 3.13-0.99 5.75-0.91 8.97 0.01 0.96 0.03 1.91 0.05 2.9 0.03 1.07 0.03 1.07 0.07 2.16 4.97 0.36 4.97 0.36 9.44-1.5 0.51-0.49 1.03-0.99 1.56-1.5-0.06 1.75-0.06 1.75-1 4-5.57 3.97-5.57 3.97-9.62 4.06-3.35-1.49-5.12-3.17-7.38-6.06-1.33-5.65-0.71-10.1 0.56-15.6 0.18-0.81 0.36-1.62 0.54-2.46 1.68-7.44 3.76-14.8 5.97-22.1 0.25-0.83 0.5-1.67 0.76-2.53 0.22-0.74 0.45-1.48 0.68-2.24 0.64-2.37 0.64-2.37 0.49-6.08-2.31-0.33-4.62-0.66-7-1v-2h10c0.11-0.76 0.22-1.52 0.33-2.31 0.87-5.68 1.93-11 3.87-16.4 1.43-4.03 2.59-8.15 3.8-12.2z" fill="#000100"/>
<path transform="translate(677 1311)" d="m0 0c2.61 2.55 4.35 4.59 5.06 8.25-0.28 3.29-0.51 6.03-2 9-2.33 0.04-4.66 0.04-7 0-1-1-1-1-1.31-3.81 0.38-3.9 1.59-4.56 4.31-7.19 0.32-2.14 0.32-2.14-1-4-4.75-3.25-8.43-3.53-14-3-2.82 1.39-2.82 1.39-5 3h-2c-1.09 3.29-1.1 5.74-1.06 9.19 0.01 1.08 0.02 2.17 0.03 3.29 0.01 0.83 0.02 1.66 0.03 2.52h3c1.56 1.44 1.56 1.44 3 3l2 1v2c0.7 0.23 1.41 0.45 2.13 0.69 4.33 1.98 7.73 4.52 10.3 8.56 1.03 5.04 0.41 9.79-1.62 14.5-4.62 5.73-9.57 8.91-16.8 10.2-6.73 0.18-12.2-1.55-17.3-6-3.05-3.61-3.03-7.31-2.97-11.8 0.28-2.17 0.28-2.17 1.97-4.8 2.31-1.37 2.31-1.37 5.06-1.12 0.74 0.25 1.49 0.49 2.25 0.75 0.63 2.87 0.63 2.87 1 6l-2 2h-3c-0.4 4.59-0.4 4.59 1.06 8.81 5.8 3.55 11.5 3.63 17.9 2.19 4.03-1.61 5.58-2.37 8-6 0.55-3.07 0.54-5.93 0-9-2.19-2.94-2.19-2.94-5-5-0.53-0.58-1.07-1.15-1.62-1.75-1.47-1.51-1.47-1.51-4.38-2.25-1.37-1.25-1.37-1.25-3-3-0.86-0.83-1.73-1.65-2.62-2.5-3.61-3.79-3.73-7.16-3.65-12.2 0.53-4.59 2.54-7.72 5.89-10.8 7.1-5.51 17.1-6.61 24.3-0.74z" fill="#000100"/>
<path transform="translate(809,1308)" d="m0 0c3.15 2.62 5.78 4.81 6.2 9.02 0.07 3.55 0.11 6.26-1.32 9.54-2.7 2.07-4.58 1.86-7.88 1.44l-2-2c0.21-4.9 1.51-6.73 5-10 0.79-2.14 0.79-2.14 1-4h-2v-2c-5.59-0.49-8.98-0.26-13.4 3.33-9.08 9.51-13 25.6-12.8 38.4-0.01 0.74-0.02 1.48-0.02 2.25-0.06 5.36-0.06 5.36 2.27 10 6.17 2.39 12.2 0.43 18-2-2.67 4-5.41 4.92-10 6-4.99-0.17-8.8-1.29-13-4-6.36-7.95-6.83-16.2-6-26 2.54-12.6 9.01-21.1 19.2-28.5 5.22-2.84 11.1-3.24 16.8-1.5z" fill="#000100"/>
<path transform="translate(1041 1310)" d="m0 0c3.08 3.95 3.35 6.45 3.28 11.4-0.28 2.2-0.28 2.2-1.9 4.76-2.98 1.81-4.96 1.75-8.38 1.44-0.81-2.62-0.81-2.62-1-6 2.38-3.12 2.38-3.12 5-6 0.85-2.21 0.85-2.21 1-4-3.65-2.33-6.74-2.38-11-2-2.28 1.4-2.28 1.4-4 3h-2c-0.31 0.79-0.62 1.57-0.94 2.38-1.06 2.62-1.06 2.62-2.06 4.62h-2c-0.15 1.27-0.15 1.27-0.31 2.56-0.69 3.44-0.69 3.44-2.13 6.7-3.69 8.41-5.87 19.6-4.56 28.7 1.24 2.98 2.08 4.4 4.75 6.15 2.89 1.09 4.95 0.84 8 0.48 0.98-0.11 1.97-0.22 2.98-0.34 0.75-0.09 1.5-0.19 2.27-0.29-3.76 3.07-7.12 4.29-12 4-5.23-1.6-9.25-4.21-12-9-2.82-7.26-3.39-13.4-2-21 0.1-0.76 0.21-1.52 0.31-2.31 1.6-9.6 8.74-19.3 16.5-25 7-4.22 15.5-5.6 22.2-0.21z" fill="#000100"/>
<path transform="translate(624 1309)" d="m0 0c2.29 4.09 2.02 7.99 1.44 12.6-2.19 6.81-7.11 9.41-13.1 12.7-5.63 2.28-12 2.61-17.9 3.31-1.23 4.38-1.22 8.55-1.25 13.1-0.02 0.82-0.04 1.64-0.07 2.48 0 0.78-0.01 1.56-0.01 2.37-0.01 0.72-0.02 1.43-0.03 2.16 0.46 2.5 1.43 3.34 3.36 4.93 3.26 2.13 5.43 2.13 9.25 1.63 0.89-0.11 1.78-0.22 2.7-0.34 0.68-0.09 1.35-0.19 2.05-0.29-3.77 3.08-7.12 4.27-12 4-5.06-1.32-8.13-3.68-10.9-8.06-4.5-7.94-4.29-17.8-2.19-26.6 4.26-11.8 10.8-19.7 22.1-25.4 5.62-1.54 11.4-1.45 16.6 1.44zm-21.5 5.67c-4.47 5.91-6.66 11.7-8.1 18.9 1.59 1.6 3.23 1.25 5.44 1.32 6.39-0.1 12.4-1.5 17.3-5.83 3.46-4.27 4.69-9.02 4.3-14.5-1.14-2.49-2.09-4.09-4-6-6.42-0.76-10.7 1.46-14.9 6.11z" fill="#000100"/>
<path transform="translate(1098 1310)" d="m0 0c2.42 5.27 2.12 9.91 0.19 15.3-3.85 5.71-9.38 8.63-15.8 10.7-4.65 0.87-9.3 1.49-14 2-1.98 7.51-3.79 15.6-0.76 23.1 1.91 2.12 3.11 2.93 5.76 3.94 2.82 0.03 2.82 0.03 5.74-0.38 0.99-0.11 1.97-0.22 2.99-0.33 0.75-0.1 1.49-0.19 2.27-0.29-3.77 3.07-7.13 4.29-12 4-5.23-1.6-9.25-4.21-12-9-2.83-7.26-3.39-13.4-2-21 0.1-0.76 0.2-1.52 0.31-2.31 1.04-6.28 3.85-10.7 7.69-15.7 0.47-0.64 0.95-1.28 1.44-1.95 4.04-5.09 8.8-8.67 14.9-10.9 10.8-0.51 10.8-0.51 15.2 2.88zm-23.4 7.12c-3.35 5.16-6.24 11.7-6.24 17.9 7.48 0.45 13.8 0.68 20-4 4.12-3.94 6.75-7.75 7.37-13.4-0.44-4.21-1.19-5.79-4.37-8.56-6.71-1.52-12.8 3.02-16.8 8.12z" fill="#000100"/>
<path transform="translate(875 1310)" d="m0 0c3.43 7.22 2.21 15 0.19 22.5-1.16 3.1-2.55 6.03-4 9-1.06 2.33-2.09 4.67-3.12 7.02-0.67 1.51-1.39 3-2.13 4.48-1.14 3.8-0.91 7.56-0.75 11.5 3.76 1.26 5.37 0.37 9-1-1.94 2.02-3.63 3.42-6 5-3.47-0.35-5.05-1.03-8-3-3.35-8.06-1.96-17.3 0.82-25.4 0.98-2.26 2.06-4.44 3.18-6.63 1.07-2.2 2.13-4.41 3.19-6.62 0.5-1.05 1.01-2.09 1.54-3.17 1.81-4.57 2.85-8.47 1.27-13.2-4.32 0.51-8.04 1.2-12 3 4.77-5.17 10.3-8.87 16.8-3.5z" fill="#000100"/>
<path transform="translate(978,1308)" d="m0 0c2.72 2.25 3.28 4.63 3.81 8 0.74 9.37-1.68 17.7-5.81 26-0.9 1.98-1.8 3.96-2.69 5.94-2.17 4.78-2.17 4.78-3.31 7.06-0.07 1.54-0.08 3.08-0.06 4.62 0.01 0.82 0.02 1.64 0.02 2.48 0.02 0.63 0.03 1.25 0.04 1.9 1.98 0.33 3.96 0.66 6 1-1.19 1.56-1.19 1.56-3 3-3.1-0.08-4.64-0.73-7.11-2.6-2.5-3.17-2.7-5.88-2.7-9.78-0.01-0.72-0.01-1.45-0.01-2.2 0.44-11.1 5.83-21.9 10.9-31.6 1.16-2.46 1.08-4.41 1-7.12-0.02-1.34-0.02-1.34-0.05-2.7-0.02-0.68-0.05-1.35-0.07-2.05-3.64-0.1-5.83 0.12-9 2 3.4-5.01 6.17-5.58 12-4z" fill="#000100"/>
<path transform="translate(986 1276)" d="m0 0c2.37 1.07 3.53 1.65 4.94 3.88-0.13 3.56-0.13 3.56-1 7-3 2-3 2-6.06 1.87-2.94-0.87-2.94-0.87-4.38-2.63-0.72-2.86-0.56-4.46 0.44-7.24 2.05-2.13 3.06-3.06 6.06-2.88z" fill="#000100"/>
<path transform="translate(622,1348)" d="m0 0 1 2c-1.04 2.28-1.04 2.28-2.62 4.94-0.51 0.87-1.02 1.75-1.54 2.65-2.02 2.65-3.91 3.89-6.84 5.41l1-3 2-1 1-3 3-3c1.03-1.65 2.04-3.31 3-5z" fill="#000100"/>
<path transform="translate(811,1347)" d="m0 0c0.68 1.7 0.68 1.7 1 4-1.14 2.36-1.14 2.36-2.81 4.75-0.82 1.2-0.82 1.2-1.65 2.42-0.51 0.61-1.02 1.21-1.54 1.83h-2c1.46-2.97 3.01-5.86 4.62-8.75 0.45-0.8 0.9-1.6 1.36-2.42 0.33-0.61 0.67-1.21 1.02-1.83z" fill="#000100"/>
<path transform="translate(1091,1356)" d="m0 0c0 3 0 3-2.5 5.69-0.83 0.76-1.65 1.52-2.5 2.31l-2-1 7-7z" fill="#000100"/>
<path transform="translate(1035,1356)" d="m0 0c0 3 0 3-2.5 5.69-0.83 0.76-1.65 1.52-2.5 2.31l-2-1 7-7z" fill="#000100"/>
<path transform="translate(716,1347)" d="m0 0h1c-0.62 7.62-0.62 7.62-4 11 0.99-3.63 1.98-7.26 3-11z" fill="#000100"/>
<path transform="translate(883,1344)" d="m0 0c0.75 1.69 0.75 1.69 1 4-1.94 2.75-1.94 2.75-4 5 0.56-3.34 1.35-6.03 3-9z" fill="#000100"/>
<path transform="translate(1095,1349)" d="m0 0 1 3-4 4c1.88-4.75 1.88-4.75 3-7z" fill="#000100"/>
<path transform="translate(1039,1349)" d="m0 0 1 3-4 4c1.88-4.75 1.88-4.75 3-7z" fill="#000100"/>
<path transform="translate(544,1314)" d="m0 0v3c-0.99 0.49-0.99 0.49-2 1l2-4z" fill="#000100"/>
<path transform="translate(959,1322)" d="m0 0 1 3c-0.99 0.49-0.99 0.49-2 1l1-4z" fill="#000100"/>
<path transform="translate(961,1318)" d="m0 0 1 2-2 2 1-4z" fill="#000100"/>
<path transform="translate(986,1350)" d="m0 0v3z" fill="#000100"/>
<path transform="translate(717,1344)" d="m0 0c0.99 0.49 0.99 0.49 2 1l-2 2v-3z" fill="#000100"/>
<path transform="translate(979,1362)" d="m0 0 1 2-2-1 1-1z" fill="#000100"/>
<path transform="translate(803,1360)" d="m0 0 1 2-2-1 1-1z" fill="#000100"/>
<path transform="translate(877,1356)" d="m0 0c0.99 0.49 0.99 0.49 2 1-0.99 0.49-0.99 0.49-2 1v-2z" fill="#000100"/>
<path transform="translate(976,1364)" d="m0 0 2 1z" fill="#000100"/>
<path transform="translate(610,1363)" d="m0 0 2 1z" fill="#000100"/>
</svg>
